<?xml version="1.0" standalone="no"?><!DOCTYPE svg PUBLIC "-//W3C//DTD SVG 1.1//EN" "http://www.w3.org/Graphics/SVG/1.1/DTD/svg11.dtd"><svg t="1735885868758" class="icon" viewBox="0 0 1024 1024" version="1.1" xmlns="http://www.w3.org/2000/svg" p-id="1614" xmlns:xlink="http://www.w3.org/1999/xlink" width="200" height="200"><path d="M170.666667 1024a170.666667 170.666667 0 0 1-170.666667-170.666667V170.666667a170.666667 170.666667 0 0 1 170.666667-170.666667h682.666666a170.666667 170.666667 0 0 1 170.666667 170.666667v682.666666a170.666667 170.666667 0 0 1-170.666667 170.666667zM85.333333 170.666667v682.666666a85.333333 85.333333 0 0 0 85.333334 85.333334h682.666666a85.333333 85.333333 0 0 0 85.333334-85.333334V170.666667a85.333333 85.333333 0 0 0-85.333334-85.333334H170.666667a85.333333 85.333333 0 0 0-85.333334 85.333334z m567.722667 532.224a100.693333 100.693333 0 0 1-32.682667-76.117334h52.053334A54.613333 54.613333 0 0 0 731.733333 682.666667a56.32 56.32 0 0 0 59.306667-60.16 54.613333 54.613333 0 0 0-61.013333-60.16h-8.533334V516.266667h8.533334a49.92 49.92 0 0 0 55.466666-55.466667 54.229333 54.229333 0 1 0-108.373333-4.266667h-52.48a101.12 101.12 0 0 1 107.093333-98.986666 99.413333 99.413333 0 0 1 105.813334 101.546666 80.213333 80.213333 0 0 1-45.653334 78.08 85.333333 85.333333 0 0 1 51.2 85.333334 101.973333 101.973333 0 0 1-111.36 106.24 100.650667 100.650667 0 0 1-78.677333-25.856zM496.64 725.333333v-62.293333h61.866667V725.333333z m-160.853333 0v-54.613333H188.586667v-48.64l128-261.12h56.746666l-128 261.12h90.453334v-85.333333h50.773333v85.333333H426.666667v48.64h-40.106667V725.333333z m160.853333-145.92v-62.293333h61.866667v62.293333z" fill="#FFFFFF" p-id="1615" data-spm-anchor-id="a313x.search_index.0.i2.6fba3a819EL0xr" class="selected"></path></svg>