<?xml version="1.0" standalone="no"?><!DOCTYPE svg PUBLIC "-//W3C//DTD SVG 1.1//EN" "http://www.w3.org/Graphics/SVG/1.1/DTD/svg11.dtd"><svg t="1735885908011" class="icon" viewBox="0 0 1024 1024" version="1.1" xmlns="http://www.w3.org/2000/svg" p-id="5386" xmlns:xlink="http://www.w3.org/1999/xlink" width="200" height="200"><path d="M170.666667 1024a170.666667 170.666667 0 0 1-170.666667-170.666667V170.666667a170.666667 170.666667 0 0 1 170.666667-170.666667h682.666666a170.666667 170.666667 0 0 1 170.666667 170.666667v682.666666a170.666667 170.666667 0 0 1-170.666667 170.666667zM85.333333 170.666667v682.666666a85.333333 85.333333 0 0 0 85.333334 85.333334h682.666666a85.333333 85.333333 0 0 0 85.333334-85.333334V170.666667a85.333333 85.333333 0 0 0-85.333334-85.333334H170.666667a85.333333 85.333333 0 0 0-85.333334 85.333334z m308.181334 445.568A76.8 76.8 0 0 1 372.906667 554.666667a152.618667 152.618667 0 0 1 20.48-67.413334l62.293333-128h42.666667l-58.88 117.76a57.301333 57.301333 0 0 1 24.32-4.266666A72.917333 72.917333 0 0 1 534.613333 554.666667a78.037333 78.037333 0 0 1-80.64 85.333333h-4.778666a76.8 76.8 0 0 1-55.68-23.765333z m28.458666-92.288a42.666667 42.666667 0 0 0-10.709333 33.28 42.666667 42.666667 0 1 0 83.2 0 42.666667 42.666667 0 0 0-40.96-49.066667l0.426667 1.706667h-0.213334a42.666667 42.666667 0 0 0-31.701333 14.08z m308.48 113.066666l58.88-117.333333a67.242667 67.242667 0 0 1-24.746666 4.266667 72.96 72.96 0 0 1-71.253334-79.36 81.066667 81.066667 0 1 1 161.706667 0 151.594667 151.594667 0 0 1-19.626667 64.426666l-62.293333 128z m12.416-227.797333a42.666667 42.666667 0 0 0-10.709333 33.28 42.666667 42.666667 0 1 0 85.333333 0 42.666667 42.666667 0 0 0-42.666666-47.36 42.666667 42.666667 0 0 0-31.957334 14.08zM597.333333 635.733333v-46.933333h46.506667v46.933333z m-353.28 0V404.906667l-53.333333 46.933333v-42.666667l53.333333-46.933333h39.253334v273.493333zM597.333333 526.506667v-46.933334h46.506667v46.933334z" fill="#FFFFFF" p-id="5387"></path></svg>