<?xml version="1.0" standalone="no"?><!DOCTYPE svg PUBLIC "-//W3C//DTD SVG 1.1//EN" "http://www.w3.org/Graphics/SVG/1.1/DTD/svg11.dtd"><svg t="1735885894819" class="icon" viewBox="0 0 1024 1024" version="1.1" xmlns="http://www.w3.org/2000/svg" p-id="2747" data-spm-anchor-id="a313x.search_index.0.i5.6fba3a819EL0xr" xmlns:xlink="http://www.w3.org/1999/xlink" width="200" height="200"><path d="M170.666667 1024a170.666667 170.666667 0 0 1-170.666667-170.666667V170.666667a170.666667 170.666667 0 0 1 170.666667-170.666667h682.666666a170.666667 170.666667 0 0 1 170.666667 170.666667v682.666666a170.666667 170.666667 0 0 1-170.666667 170.666667zM85.333333 170.666667v682.666666a85.333333 85.333333 0 0 0 85.333334 85.333334h682.666666a85.333333 85.333333 0 0 0 85.333334-85.333334V170.666667a85.333333 85.333333 0 0 0-85.333334-85.333334H170.666667a85.333333 85.333333 0 0 0-85.333334 85.333334z m642.986667 554.666666V417.706667l-71.253333 62.72V422.4l71.253333-61.44h52.053333V725.333333z m-231.68 0v-62.293333h61.866667V725.333333zM298.666667 725.333333V417.706667l-69.546667 62.72V422.4L298.666667 360.96h53.76V725.333333z m197.973333-145.92v-62.293333h61.866667v62.293333z" fill="#FFFFFF" p-id="2748"></path></svg>